<?xml version="1.0" encoding="utf-8"?>
<!-- Generator: Adobe Illustrator 20.1.0, SVG Export Plug-In . SVG Version: 6.00 Build 0)  -->
<svg version="1.1" id="Layer_1" xmlns="http://www.w3.org/2000/svg" xmlns:xlink="http://www.w3.org/1999/xlink" x="0px" y="0px"
	 viewBox="0 0 218 74" style="enable-background:new 0 0 218 74;" xml:space="preserve">
<style type="text/css">
	.st0{fill:#EDF3F5;}
</style>
<path id="logo-kohler-WIB-vert" class="st0" d="M86.1,33.3V2.4h8.5v23h9.5v7.9H86.1z M67,33.3V21.8h8.5v11.5H84V2.4h-8.5v10.8H67
	V2.4h-8.5v30.9H67z M2.5,2.4v30.9H11v-11h0l9.5,11l11.2,0L17.7,17.1L29.9,2.4h-11l-8,9.2V2.4H2.5z M25.3,17.6
	c0.1,8.8,7.3,15.9,16.1,15.8c8.8-0.1,15.9-7.3,15.8-16.1C57.1,8.5,50,1.5,41.3,1.5C32.4,1.5,25.3,8.7,25.3,17.6
	C25.3,17.6,25.3,17.6,25.3,17.6 M41.3,25.5c-4,0-7.2-3.5-7.2-7.9s3.2-7.9,7.2-7.9s7.2,3.5,7.2,7.9S45.2,25.5,41.3,25.5 M105.8,2.4
	v30.9H123V26h-8.6l0-4.7h7.8v-6.9h-7.8l0-4.9l8.5,0V2.4H105.8z M140.5,20.9c10.2-6.9,4.3-18.5-5-18.5h-10.6v30.9h8.3v-9.5l6.9,9.5
	l9.2,0L140.5,20.9 M133.2,15.5V9.5h2.4c1.6,0,3,1.3,3,3s-1.3,3-3,3L133.2,15.5z M150.3,31.5c0,1.5,1.3,2.8,2.8,2.8
	c1.5,0,2.8-1.3,2.8-2.8c0-1.5-1.3-2.8-2.8-2.8C151.6,28.7,150.4,29.9,150.3,31.5C150.3,31.5,150.3,31.5,150.3,31.5 M155.3,31.5
	c0,1.2-1,2.1-2.1,2.1s-2.1-1-2.1-2.1c0-1.2,1-2.1,2.1-2.1c1.1,0,2.1,0.9,2.1,2C155.3,31.4,155.3,31.5,155.3,31.5 M153.8,31.7
	c0.4,0,0.7-0.2,0.8-0.6c0-0.1,0-0.1,0-0.2c0-0.8-0.5-0.9-1.1-0.9H152v2.9h0.6v-1.2h0.4l0.7,1.2h0.7L153.8,31.7z M152.7,31.2v-0.7
	h0.6c0.3,0,0.7,0,0.7,0.3c0,0.4-0.2,0.4-0.5,0.4L152.7,31.2L152.7,31.2z M11.4,71.9h2.1l8.2-28.7h0.1l8.3,28.7h2.1L41,41.6h-2
	l-7.8,28.3h-0.1L23,41.6h-2.3l-8,28.3h-0.1L4.6,41.6H2.7L11.4,71.9z M55.3,68.7c0,0.4,0,0.8,0.1,1.3c0.1,0.4,0.2,0.7,0.4,1
	c0.2,0.3,0.5,0.5,0.9,0.7c0.5,0.2,1,0.3,1.6,0.3c0.4,0,0.9-0.1,1.3-0.2v-1.4c-0.4,0.1-0.8,0.1-1.2,0.1c-0.3,0-0.6-0.1-0.9-0.2
	c-0.2-0.2-0.3-0.4-0.4-0.6C57,69.4,57,69.1,57,68.8c0-0.3,0-0.6,0-0.9V55.2c0.1-1.6-0.6-3.1-1.8-4.1c-1.2-1-3.1-1.6-5.8-1.6
	c-2.2-0.1-4.4,0.5-6.1,1.8c-1.5,1.4-2.4,3.4-2.3,5.4h1.6c0-1.7,0.7-3.3,2-4.4c1.4-1,3-1.5,4.7-1.4c0.9,0,1.9,0.1,2.8,0.3
	c0.7,0.2,1.3,0.5,1.9,0.9c0.5,0.4,0.8,0.8,1.1,1.4c0.2,0.5,0.3,1.1,0.3,1.7c0,0.6,0,1.3-0.1,1.9c-0.1,0.5-0.3,0.9-0.6,1.3
	c-0.4,0.4-1,0.6-1.5,0.8c-0.9,0.2-1.8,0.4-2.7,0.4l-2.5,0.2c-0.9,0.1-1.8,0.2-2.7,0.4c-0.9,0.2-1.8,0.5-2.6,1c-1.8,1-2.8,3-2.7,5
	c-0.1,1.8,0.6,3.5,1.9,4.7c1.6,1.1,3.5,1.6,5.4,1.5c1,0,2-0.1,2.9-0.4c0.8-0.2,1.6-0.6,2.4-1.1c0.7-0.4,1.3-1,1.8-1.6
	c0.5-0.6,0.8-1.2,1.1-1.8h0.1L55.3,68.7L55.3,68.7z M55.3,63.6c0,0.6-0.1,1.1-0.2,1.6c-0.2,0.9-0.6,1.8-1.1,2.5
	c-0.6,0.9-1.5,1.7-2.5,2.3c-1.3,0.7-2.9,1.1-4.4,1c-1.5,0.1-3-0.3-4.2-1.2c-1.1-0.9-1.6-2.2-1.5-3.6c0-0.9,0.2-1.7,0.6-2.5
	c0.4-0.6,0.9-1.1,1.6-1.5c0.7-0.4,1.4-0.6,2.2-0.8c0.8-0.2,1.6-0.3,2.4-0.4l2.7-0.3c0.9-0.1,1.8-0.2,2.7-0.4c0.7-0.1,1.3-0.5,1.8-1
	L55.3,63.6L55.3,63.6z M63.6,41.6H62v30.3h1.6C63.6,71.9,63.6,41.6,63.6,41.6z M68.2,71.9h1.6v-8.2l5-4.2l9.3,12.5h2.2L76,58.2
	l9.6-8.2h-2.3L69.8,61.7V41.6h-1.6C68.2,41.6,68.2,71.9,68.2,71.9z M85.3,61.2h9.1v-1.6h-9.1V61.2L85.3,61.2z M99.4,71.9h1.9V41.6
	h-1.9V71.9z M106,71.9h1.6V60.1c0-1.2,0.2-2.5,0.5-3.7c0.3-1.1,0.9-2,1.6-2.9c0.7-0.8,1.5-1.4,2.5-1.9c1-0.5,2.2-0.7,3.3-0.7
	c1.2-0.1,2.4,0.2,3.5,0.8c0.8,0.5,1.4,1.1,1.9,1.9c0.4,0.7,0.7,1.5,0.7,2.4c0.1,0.7,0.1,1.4,0.1,2v13.8h1.6V58.4c0-0.5,0-1,0-1.6
	c0-0.6-0.1-1.3-0.3-1.9c-0.2-0.7-0.4-1.3-0.7-1.9c-0.3-0.7-0.8-1.2-1.3-1.7c-0.6-0.6-1.4-1-2.2-1.2c-1.1-0.3-2.2-0.5-3.3-0.5
	c-0.8,0-1.7,0.1-2.5,0.3c-1.6,0.4-3,1.4-4.1,2.7c-0.5,0.7-0.9,1.4-1.2,2.2h-0.1v-4.7H106L106,71.9L106,71.9z M140.2,71.9h12.2
	c1.5,0,2.9-0.2,4.3-0.6c1.2-0.3,2.3-0.9,3.3-1.6c0.9-0.7,1.6-1.6,2.1-2.7c0.5-1.1,0.8-2.4,0.8-3.7c0.1-1.3-0.3-2.6-1-3.8
	c-0.6-0.9-1.3-1.7-2.2-2.3c-0.7-0.5-1.5-0.9-2.3-1.1c-0.5-0.2-0.9-0.2-1.4-0.3l-0.1-0.1c1.6-0.2,3.2-1,4.3-2.2
	c0.5-0.6,0.9-1.2,1.2-2c0.3-0.7,0.4-1.5,0.4-2.3c0-1-0.2-1.9-0.5-2.9c-0.3-1-0.9-1.8-1.6-2.5c-0.8-0.8-1.8-1.4-2.9-1.8
	c-1.5-0.5-3-0.7-4.6-0.7h-12.2V71.9L140.2,71.9z M142.1,55.4V43.2h10.3c1,0,2,0.1,2.9,0.3c0.9,0.2,1.7,0.5,2.4,1
	c0.7,0.5,1.3,1.1,1.7,1.8c0.5,0.9,0.7,1.8,0.6,2.8c0.1,1.7-0.6,3.4-1.9,4.5c-1.3,1.1-3.2,1.7-5.8,1.7L142.1,55.4L142.1,55.4z
	 M142.1,70.3V57h10.3c1,0,2,0.1,3,0.3c1,0.2,1.9,0.5,2.8,1c0.8,0.5,1.5,1.2,2.1,2c0.6,1,0.9,2.1,0.8,3.2c0.1,2-0.7,3.9-2.3,5.2
	c-1.9,1.2-4.1,1.9-6.4,1.7L142.1,70.3L142.1,70.3z M180.8,68.8c0,0.4,0,0.8,0.1,1.3c0.1,0.4,0.2,0.7,0.4,1c0.2,0.3,0.5,0.5,0.9,0.7
	c0.5,0.2,1,0.3,1.6,0.3c0.4,0,0.9-0.1,1.3-0.2v-1.4c-0.4,0.1-0.8,0.1-1.2,0.1c-0.3,0-0.6-0.1-0.9-0.2c-0.2-0.2-0.3-0.4-0.4-0.6
	c-0.1-0.3-0.1-0.6-0.1-0.8c0-0.3,0-0.6,0-0.9V55.2c0.1-1.6-0.6-3.1-1.8-4.1c-1.2-1-3.1-1.6-5.8-1.6c-2.2-0.1-4.4,0.5-6.1,1.8
	c-1.5,1.4-2.4,3.4-2.3,5.4h1.6c0-1.7,0.7-3.3,2-4.4c1.4-1,3-1.5,4.7-1.4c0.9,0,1.9,0.1,2.8,0.3c0.7,0.2,1.3,0.5,1.9,0.9
	c0.5,0.4,0.8,0.8,1.1,1.4c0.2,0.5,0.3,1.1,0.3,1.7c0,0.6,0,1.3-0.1,1.9c-0.1,0.5-0.3,0.9-0.6,1.3c-0.4,0.4-1,0.6-1.5,0.8
	c-0.9,0.2-1.8,0.4-2.7,0.4l-2.5,0.2c-0.9,0.1-1.8,0.2-2.7,0.4c-0.9,0.2-1.8,0.5-2.6,1c-1.8,1-2.8,3-2.7,5c-0.1,1.8,0.6,3.5,1.9,4.7
	c1.6,1.1,3.5,1.6,5.4,1.5c1,0,2-0.1,2.9-0.4c0.8-0.2,1.6-0.6,2.4-1.1c0.7-0.4,1.3-1,1.8-1.6c0.5-0.6,0.8-1.2,1.1-1.8h0.1V68.8
	L180.8,68.8z M180.8,63.6c0,0.6-0.1,1.1-0.2,1.6c-0.2,0.9-0.6,1.8-1.1,2.5c-0.6,0.9-1.5,1.7-2.5,2.3c-1.3,0.7-2.9,1.1-4.4,1
	c-1.5,0.1-3-0.3-4.2-1.2c-1.1-0.9-1.6-2.2-1.5-3.6c0-0.9,0.2-1.7,0.6-2.5c0.4-0.6,0.9-1.1,1.6-1.5c0.7-0.4,1.4-0.6,2.2-0.8
	c0.8-0.2,1.6-0.3,2.4-0.4l2.7-0.3c0.9-0.1,1.8-0.2,2.7-0.4c0.7-0.1,1.3-0.5,1.8-1L180.8,63.6L180.8,63.6z M194.6,50.1h-4.8v-6.8
	h-1.6v6.8h-4v1.4h4v15.3c-0.1,1,0.1,2,0.4,2.9c0.3,0.7,0.8,1.2,1.4,1.6c0.6,0.4,1.3,0.6,2.1,0.6c0.8,0.1,1.6,0.1,2.4,0v-1.4
	c-0.7,0-1.3,0-2,0c-0.5,0-1-0.2-1.5-0.5c-0.4-0.3-0.7-0.7-0.9-1.2c-0.2-0.7-0.3-1.4-0.3-2.1V51.5h4.8L194.6,50.1L194.6,50.1z
	 M197,41.6v30.3h1.6V60.1c0-1.2,0.2-2.5,0.5-3.7c0.3-1.1,0.8-2,1.6-2.9c0.7-0.8,1.5-1.4,2.5-1.9c1-0.5,2.2-0.7,3.3-0.7
	c1.2-0.1,2.4,0.2,3.5,0.8c0.8,0.5,1.4,1.1,1.9,1.9c0.4,0.7,0.7,1.5,0.7,2.4c0.1,0.7,0.1,1.4,0.1,2v13.8h1.6V58.4c0-0.5,0-1,0-1.6
	c0-0.6-0.1-1.3-0.3-1.9c-0.1-0.7-0.4-1.3-0.7-1.9c-0.3-0.7-0.8-1.2-1.3-1.7c-0.6-0.6-1.4-1-2.2-1.2c-1.1-0.3-2.2-0.5-3.3-0.5
	c-0.8,0-1.7,0.1-2.5,0.3c-1.6,0.4-3,1.4-4.1,2.7c-0.5,0.7-0.9,1.4-1.2,2.2h-0.1V41.6L197,41.6L197,41.6z"/>
</svg>
