<?xml version="1.0" standalone="no"?>
<!DOCTYPE svg PUBLIC "-//W3C//DTD SVG 1.1//EN" "http://www.w3.org/Graphics/SVG/1.1/DTD/svg11.dtd">
<!--Generator: Xara Designer (www.xara.com), SVG filter version: 4.0.0.1-->
<svg stroke-width="0.501" stroke-linejoin="bevel" fill-rule="evenodd" xmlns:xlink="http://www.w3.org/1999/xlink" xmlns="http://www.w3.org/2000/svg" version="1.1" overflow="visible" width="612pt" height="792pt" viewBox="0 0 612 792">
 <defs>
  <marker id="DefaultArrow2" markerUnits="strokeWidth" viewBox="0 0 1 1" markerWidth="1" markerHeight="1" overflow="visible" orient="auto">
   <!-- REF_ARROW_STRAIGHT (-2) -->
   <g transform="scale(0.0092592592)">
    <!-- 1/108 -->
    <path d="M -9 54 L -9 -54 L 117 0 z"/>
   </g>
  </marker>
  <marker id="DefaultArrow3" markerUnits="strokeWidth" viewBox="0 0 1 1" markerWidth="1" markerHeight="1" overflow="visible" orient="auto">
   <!-- REF_ARROW_ANGLED -->
   <g transform="scale(0.0092592592)">
    <path d="M -27 54 L -9 0 L -27 -54 L 135 0 z"/>
   </g>
  </marker>
  <marker id="DefaultArrow4" markerUnits="strokeWidth" viewBox="0 0 1 1" markerWidth="1" markerHeight="1" overflow="visible" orient="auto">
   <!-- REF_ARROW_ROUNDED -->
   <g transform="scale(0.0092592592)">
    <path d="M -9,0 L -9,-45 C -9,-51.708 2.808,-56.580 9,-54 L 117,-9 C 120.916,-7.369 126.000,-4.242 126,0 C 126,4.242 120.916,7.369 117,9 L 9,54 C 2.808,56.580 -9,51.708 -9,45 z"/>
   </g>
  </marker>
  <marker id="DefaultArrow5" markerUnits="strokeWidth" viewBox="0 0 1 1" markerWidth="1" markerHeight="1" overflow="visible" orient="auto">
   <!-- REF_ARROW_SPOT -->
   <g transform="scale(0.0092592592)">
    <path d="M -54, 0 C -54,29.807 -29.807,54 0,54 C 29.807,54 54,29.807 54,0 C 54,-29.807 29.807,-54 0,-54 C -29.807,-54 -54,-29.807 -54,0 z"/>
   </g>
  </marker>
  <marker id="DefaultArrow6" markerUnits="strokeWidth" viewBox="0 0 1 1" markerWidth="1" markerHeight="1" overflow="visible" orient="auto">
   <!-- REF_ARROW_DIAMOND -->
   <g transform="scale(0.0092592592)">
    <path d="M -63,0 L 0,63 L 63,0 L 0,-63 z"/>
   </g>
  </marker>
  <marker id="DefaultArrow7" markerUnits="strokeWidth" viewBox="0 0 1 1" markerWidth="1" markerHeight="1" overflow="visible" orient="auto">
   <!-- REF_ARROW_FEATHER -->
   <g transform="scale(0.0092592592)">
    <path d="M 18,-54 L 108,-54 L 63,0 L 108,54 L 18, 54 L -36,0 z"/>
   </g>
  </marker>
  <marker id="DefaultArrow8" markerUnits="strokeWidth" viewBox="0 0 1 1" markerWidth="1" markerHeight="1" overflow="visible" orient="auto">
   <!-- REF_ARROW_FEATHER2 -->
   <g transform="scale(0.0092592592)">
    <path d="M -36,0 L 18,-54 L 54,-54 L 18,-18 L 27,-18 L 63,-54 L 99,-54 L 63,-18 L 72,-18 L 108,-54 L 144,-54 L 90,0 L 144,54 L 108,54 L 72,18 L 63,18 L 99,54 L 63,54 L 27,18 L 18,18 L 54,54 L 18,54 z"/>
   </g>
  </marker>
  <marker id="DefaultArrow9" markerUnits="strokeWidth" viewBox="0 0 1 1" markerWidth="1" markerHeight="1" overflow="visible" orient="auto">
   <!-- REF_ARROW_HOLLOWDIAMOND -->
   <g transform="scale(0.0092592592)">
    <path d="M 0,45 L -45,0 L 0, -45 L 45, 0 z M 0, 63 L-63, 0 L 0, -63 L 63, 0 z"/>
   </g>
  </marker>
  <filter id="StainedFilter">
   <feBlend mode="multiply" in2="BackgroundImage" in="SourceGraphic" result="blend"/>
   <feComposite in="blend" in2="SourceAlpha" operator="in" result="comp"/>
  </filter>
  <filter id="BleachFilter">
   <feBlend mode="screen" in2="BackgroundImage" in="SourceGraphic" result="blend"/>
   <feComposite in="blend" in2="SourceAlpha" operator="in" result="comp"/>
  </filter>
  <filter id="InvertTransparencyBitmapFilter">
   <feComponentTransfer>
    <feFuncR type="gamma" amplitude="1.055" exponent=".416666666" offset="-0.055"/>
    <feFuncG type="gamma" amplitude="1.055" exponent=".416666666" offset="-0.055"/>
    <feFuncB type="gamma" amplitude="1.055" exponent=".416666666" offset="-0.055"/>
   </feComponentTransfer>
   <feComponentTransfer>
    <feFuncR type="linear" slope="-1" intercept="1"/>
    <feFuncG type="linear" slope="-1" intercept="1"/>
    <feFuncB type="linear" slope="-1" intercept="1"/>
    <feFuncA type="linear" slope="1" intercept="0"/>
   </feComponentTransfer>
   <feComponentTransfer>
    <feFuncR type="gamma" amplitude="1" exponent="2.4" offset="0"/>
    <feFuncG type="gamma" amplitude="1" exponent="2.4" offset="0"/>
    <feFuncB type="gamma" amplitude="1" exponent="2.4" offset="0"/>
   </feComponentTransfer>
  </filter>
 </defs>
 <g id="Document" fill="none" stroke="black" font-family="Times New Roman" font-size="16" transform="scale(1 -1)">
  <g id="Spread" transform="translate(0 -792)">
   <g id="Layer 1">
    <g id="Group">
     <g id="Group_1" fill-rule="nonzero" stroke-linejoin="round" stroke-linecap="round" stroke="none" stroke-width="0.25" fill="#000000" stroke-miterlimit="79.8403193612775">
      <g id="Group_2">
       <path d="M 173.109,504.487 L 172.951,504.504 C 172.998,505.623 173.042,506.697 173.083,507.725 C 173.124,508.753 173.162,509.763 173.197,510.753 C 173.232,511.743 173.264,512.732 173.294,513.719 C 173.323,514.707 173.346,515.722 173.364,516.765 C 173.382,517.808 173.396,518.893 173.408,520.021 C 173.42,521.149 173.426,522.349 173.425,523.62 C 173.092,523.632 172.752,523.643 172.406,523.651 C 172.06,523.66 171.709,523.664 171.351,523.664 C 170.994,523.664 170.66,523.659 170.349,523.647 C 170.039,523.635 169.755,523.594 169.497,523.524 C 169.239,523.454 169.008,523.344 168.802,523.194 C 168.597,523.045 168.424,522.834 168.284,522.561 C 168.143,522.289 168.036,521.942 167.963,521.52 C 167.89,521.098 167.853,520.582 167.853,519.973 L 167.853,519.771 L 166.983,519.797 C 166.966,520.506 166.957,521.136 166.957,521.687 C 166.957,522.255 166.983,522.743 167.036,523.15 C 167.089,523.558 167.199,523.893 167.365,524.157 C 167.533,524.42 167.776,524.613 168.095,524.737 C 168.414,524.86 168.838,524.921 169.365,524.921 C 169.699,524.921 170.083,524.913 170.516,524.895 C 170.95,524.877 171.407,524.86 171.887,524.842 C 172.368,524.825 172.862,524.807 173.368,524.789 C 173.875,524.772 174.366,524.763 174.841,524.763 C 175.637,524.763 176.34,524.765 176.95,524.767 C 177.559,524.77 178.101,524.775 178.576,524.781 C 179.05,524.787 179.466,524.795 179.824,524.807 C 180.181,524.819 180.508,524.836 180.804,524.86 C 181.1,524.883 181.375,524.911 181.63,524.943 C 181.885,524.975 182.144,525.015 182.408,525.062 C 182.507,524.781 182.557,524.549 182.557,524.367 C 182.557,523.981 182.395,523.685 182.07,523.48 C 181.745,523.275 181.263,523.172 180.624,523.172 C 180.02,523.172 179.31,523.209 178.492,523.282 C 177.675,523.355 176.754,523.427 175.728,523.497 C 175.711,522.63 175.689,521.704 175.662,520.72 C 175.636,519.735 175.608,518.717 175.579,517.666 C 175.549,516.614 175.519,515.539 175.487,514.44 C 175.454,513.342 175.42,512.243 175.385,511.144 C 175.35,510.046 175.317,508.957 175.284,507.879 C 175.252,506.801 175.222,505.758 175.192,504.75 L 173.109,504.487 Z" marker-start="none" marker-end="none"/>
       <path d="M 192.251,504.618 C 192.07,504.788 191.934,505.02 191.843,505.313 C 191.752,505.606 191.693,505.949 191.667,506.341 C 191.64,506.734 191.627,507.155 191.627,507.607 C 191.627,508.151 191.646,508.714 191.685,509.294 C 191.723,509.874 191.764,510.431 191.808,510.964 C 191.851,511.498 191.892,511.985 191.931,512.427 C 191.969,512.87 191.988,513.226 191.988,513.495 C 191.988,514.146 191.862,514.634 191.61,514.959 C 191.358,515.284 191.018,515.447 190.59,515.447 C 190.256,515.447 189.9,515.303 189.522,515.016 C 189.145,514.729 188.77,514.335 188.397,513.834 C 188.025,513.333 187.666,512.741 187.321,512.058 C 186.975,511.376 186.665,510.638 186.389,509.844 C 186.114,509.05 185.885,508.219 185.704,507.352 C 185.522,506.484 185.408,505.617 185.361,504.75 L 183.489,504.522 L 183.348,504.531 C 183.383,505.222 183.423,505.985 183.467,506.82 C 183.511,507.655 183.557,508.541 183.607,509.479 C 183.657,510.416 183.71,511.393 183.766,512.41 C 183.821,513.426 183.877,514.462 183.933,515.517 C 183.988,516.572 184.045,517.635 184.104,518.707 C 184.162,519.78 184.22,520.839 184.275,521.885 C 184.331,522.931 184.385,523.955 184.438,524.956 C 184.491,525.958 184.541,526.916 184.587,527.83 C 184.593,527.971 184.634,528.093 184.71,528.195 C 184.787,528.298 184.885,528.38 185.005,528.441 C 185.125,528.503 185.261,528.548 185.414,528.577 C 185.566,528.607 185.724,528.621 185.888,528.621 C 186.24,528.621 186.609,528.528 186.996,528.34 C 186.861,527.145 186.741,526.048 186.635,525.049 C 186.53,524.049 186.435,523.124 186.35,522.271 C 186.265,521.419 186.188,520.623 186.121,519.885 C 186.054,519.147 185.992,518.439 185.936,517.762 C 185.881,517.086 185.83,516.425 185.783,515.781 C 185.736,515.136 185.689,514.481 185.642,513.816 C 185.595,513.151 185.547,512.46 185.497,511.742 C 185.447,511.024 185.393,510.252 185.334,509.426 L 185.387,509.417 C 185.838,510.9 186.317,512.157 186.824,513.188 C 187.331,514.219 187.847,515.056 188.371,515.697 C 188.895,516.339 189.418,516.803 189.94,517.09 C 190.461,517.377 190.959,517.521 191.434,517.521 C 191.762,517.521 192.079,517.458 192.383,517.332 C 192.688,517.206 192.959,517.011 193.196,516.747 C 193.434,516.484 193.623,516.144 193.763,515.728 C 193.904,515.312 193.974,514.814 193.974,514.234 C 193.974,514.058 193.964,513.819 193.943,513.517 C 193.923,513.216 193.898,512.879 193.869,512.507 C 193.839,512.135 193.806,511.744 193.768,511.333 C 193.73,510.923 193.696,510.519 193.666,510.12 C 193.637,509.722 193.612,509.344 193.592,508.987 C 193.571,508.629 193.561,508.322 193.561,508.064 C 193.561,507.607 193.58,507.235 193.618,506.948 C 193.656,506.66 193.719,506.433 193.807,506.266 C 193.895,506.1 194.012,505.985 194.159,505.924 C 194.305,505.862 194.484,505.831 194.695,505.831 C 194.999,505.831 195.316,505.874 195.644,505.959 C 195.972,506.044 196.303,506.162 196.637,506.315 L 196.804,505.858 C 196.593,505.688 196.327,505.515 196.004,505.339 C 195.682,505.164 195.344,505.002 194.989,504.856 C 194.635,504.709 194.282,504.591 193.93,504.5 C 193.578,504.409 193.268,504.363 192.999,504.364 C 192.682,504.363 192.433,504.448 192.251,504.618 Z" marker-start="none" marker-end="none"/>
       <path d="M 199.01,504.522 C 198.677,504.663 198.391,504.856 198.153,505.102 C 197.916,505.348 197.731,505.639 197.6,505.976 C 197.468,506.313 197.402,506.681 197.402,507.079 C 197.402,507.595 197.497,508.064 197.688,508.486 C 197.878,508.907 198.142,509.285 198.479,509.619 C 198.815,509.953 199.218,510.242 199.687,510.485 C 200.156,510.728 200.665,510.931 201.216,511.092 C 201.767,511.253 202.35,511.373 202.965,511.452 C 203.58,511.531 204.207,511.571 204.846,511.571 C 204.887,511.94 204.921,512.297 204.947,512.643 C 204.974,512.989 204.987,513.369 204.987,513.785 C 204.987,514.248 204.911,514.65 204.758,514.99 C 204.606,515.329 204.407,515.608 204.161,515.824 C 203.915,516.041 203.637,516.202 203.326,516.308 C 203.015,516.413 202.705,516.466 202.394,516.466 C 201.978,516.466 201.627,516.422 201.34,516.334 C 201.053,516.247 200.82,516.126 200.641,515.974 C 200.462,515.821 200.333,515.641 200.254,515.433 C 200.175,515.225 200.136,515.001 200.135,514.761 C 200.136,514.48 200.187,514.197 200.289,513.913 C 200.392,513.628 200.543,513.352 200.742,513.082 L 200.707,512.986 C 200.373,512.821 200.036,512.739 199.696,512.74 C 199.497,512.739 199.311,512.77 199.138,512.832 C 198.965,512.893 198.816,512.982 198.69,513.1 C 198.564,513.217 198.464,513.361 198.391,513.531 C 198.318,513.701 198.281,513.891 198.281,514.102 C 198.281,514.447 198.364,514.773 198.531,515.077 C 198.698,515.382 198.92,515.66 199.195,515.912 C 199.47,516.164 199.789,516.39 200.153,516.589 C 200.516,516.789 200.891,516.957 201.278,517.094 C 201.664,517.232 202.053,517.337 202.443,517.411 C 202.832,517.484 203.194,517.521 203.528,517.521 C 204.143,517.521 204.669,517.439 205.106,517.275 C 205.542,517.111 205.897,516.872 206.169,516.558 C 206.441,516.245 206.641,515.865 206.767,515.42 C 206.893,514.975 206.956,514.471 206.956,513.908 C 206.956,513.522 206.939,513.097 206.907,512.634 C 206.875,512.171 206.838,511.686 206.798,511.179 C 206.756,510.673 206.72,510.15 206.688,509.611 C 206.655,509.071 206.639,508.535 206.639,508.002 C 206.639,507.158 206.796,506.524 207.11,506.099 C 207.423,505.674 207.834,505.462 208.344,505.462 C 208.795,505.462 209.299,505.629 209.856,505.963 L 210.111,505.585 C 209.718,505.193 209.291,504.894 208.828,504.689 C 208.365,504.484 207.879,504.381 207.369,504.381 C 206.988,504.381 206.636,504.446 206.314,504.574 C 205.992,504.703 205.713,504.895 205.479,505.15 C 205.245,505.405 205.063,505.726 204.934,506.113 C 204.805,506.499 204.741,506.948 204.741,507.457 C 204.741,507.61 204.745,507.762 204.754,507.914 C 204.763,508.066 204.782,508.228 204.811,508.398 L 204.758,508.398 C 204.507,507.894 204.215,507.397 203.884,506.908 C 203.553,506.418 203.189,505.982 202.794,505.598 C 202.398,505.214 201.976,504.904 201.528,504.667 C 201.08,504.429 200.61,504.311 200.118,504.311 C 199.714,504.311 199.345,504.381 199.01,504.522 Z M 201.735,506.218 C 202.016,506.341 202.293,506.511 202.566,506.728 C 202.838,506.944 203.099,507.204 203.348,507.506 C 203.597,507.807 203.821,508.137 204.02,508.494 C 204.22,508.852 204.385,509.228 204.517,509.624 C 204.649,510.019 204.735,510.425 204.776,510.841 C 204.343,510.83 203.912,510.802 203.484,510.758 C 203.056,510.714 202.651,510.645 202.267,510.551 C 201.883,510.457 201.527,510.334 201.199,510.182 C 200.871,510.03 200.588,509.841 200.351,509.615 C 200.113,509.389 199.927,509.123 199.793,508.815 C 199.658,508.508 199.59,508.152 199.59,507.747 C 199.59,507.519 199.615,507.301 199.665,507.093 C 199.715,506.885 199.794,506.701 199.902,506.543 C 200.011,506.385 200.149,506.26 200.316,506.17 C 200.483,506.079 200.683,506.033 200.918,506.033 C 201.181,506.033 201.454,506.095 201.735,506.218 Z" marker-start="none" marker-end="none"/>
       <path d="M 213.192,504.509 C 212.867,504.652 212.586,504.907 212.348,505.273 C 212.111,505.64 211.926,506.133 211.794,506.754 C 211.662,507.375 211.597,508.16 211.597,509.11 C 211.597,509.643 211.605,510.192 211.623,510.758 C 211.64,511.323 211.664,511.896 211.693,512.476 C 211.723,513.056 211.761,513.636 211.808,514.216 C 211.854,514.796 211.907,515.367 211.966,515.93 C 211.503,515.924 211.074,515.905 210.678,515.873 C 210.282,515.841 209.944,515.79 209.663,515.719 C 209.645,515.754 209.637,515.795 209.637,515.842 C 209.637,515.965 209.697,516.081 209.817,516.189 C 209.937,516.298 210.104,516.396 210.318,516.484 C 210.532,516.571 210.788,516.645 211.087,516.703 C 211.386,516.762 211.714,516.803 212.071,516.826 C 212.206,518.051 212.349,519.208 212.502,520.298 C 212.654,521.388 212.807,522.361 212.959,523.216 C 212.988,523.369 213.042,523.495 213.121,523.594 C 213.201,523.694 213.293,523.773 213.398,523.831 C 213.504,523.89 213.618,523.931 213.741,523.954 C 213.864,523.978 213.984,523.989 214.101,523.99 C 214.295,523.989 214.469,523.969 214.624,523.928 C 214.78,523.887 214.925,523.828 215.059,523.752 C 214.813,522.639 214.607,521.489 214.44,520.302 C 214.273,519.116 214.131,517.945 214.014,516.791 C 214.289,516.779 214.557,516.771 214.818,516.765 C 215.079,516.759 215.322,516.753 215.547,516.747 C 215.773,516.741 215.978,516.738 216.162,516.739 C 216.347,516.738 216.501,516.738 216.624,516.739 C 217.157,516.738 217.594,516.771 217.933,516.835 C 217.963,516.736 217.986,516.645 218.004,516.563 C 218.021,516.481 218.03,516.405 218.03,516.334 C 218.03,516.077 217.923,515.91 217.709,515.833 C 217.496,515.757 217.187,515.719 216.782,515.719 C 216.396,515.719 215.963,515.742 215.486,515.789 C 215.008,515.836 214.485,515.88 213.917,515.921 C 213.852,515.294 213.798,514.684 213.754,514.089 C 213.71,513.494 213.675,512.933 213.649,512.406 C 213.623,511.878 213.604,511.389 213.592,510.938 C 213.58,510.487 213.574,510.094 213.574,509.76 C 213.574,509.133 213.606,508.574 213.671,508.081 C 213.735,507.589 213.85,507.172 214.014,506.829 C 214.178,506.486 214.403,506.224 214.69,506.042 C 214.977,505.86 215.341,505.77 215.78,505.77 C 216.097,505.77 216.45,505.825 216.839,505.937 C 217.229,506.048 217.673,506.227 218.171,506.473 C 218.329,506.314 218.42,506.121 218.443,505.893 C 218.08,505.653 217.714,505.434 217.345,505.238 C 216.976,505.042 216.612,504.873 216.255,504.733 C 215.897,504.592 215.552,504.483 215.218,504.407 C 214.884,504.331 214.567,504.293 214.268,504.293 C 213.876,504.293 213.517,504.365 213.192,504.509 Z" marker-start="none" marker-end="none"/>
       <path d="M 230.498,504.592 C 230.027,504.651 229.524,504.724 228.991,504.812 L 227.286,504.61 L 227.128,504.627 C 227.204,505.401 227.272,506.236 227.334,507.132 C 227.396,508.029 227.449,508.966 227.492,509.945 C 227.536,510.923 227.576,511.928 227.611,512.959 C 227.646,513.991 227.674,515.029 227.694,516.075 C 227.715,517.121 227.73,518.161 227.738,519.195 C 227.747,520.229 227.752,521.236 227.752,522.214 C 227.752,522.46 227.731,522.671 227.69,522.847 C 227.649,523.022 227.577,523.166 227.475,523.278 C 227.372,523.389 227.23,523.471 227.048,523.524 C 226.867,523.577 226.635,523.603 226.354,523.603 C 225.967,523.603 225.472,523.559 224.869,523.471 L 224.781,524.253 C 225.314,524.353 225.894,524.455 226.521,524.561 C 227.148,524.666 227.794,524.763 228.459,524.851 C 229.124,524.939 229.792,525.011 230.463,525.066 C 231.134,525.122 231.783,525.15 232.41,525.15 C 232.92,525.15 233.421,525.123 233.913,525.071 C 234.405,525.018 234.871,524.931 235.31,524.811 C 235.75,524.691 236.154,524.53 236.523,524.328 C 236.892,524.126 237.212,523.875 237.481,523.576 C 237.751,523.278 237.962,522.925 238.114,522.517 C 238.266,522.11 238.342,521.643 238.342,521.115 C 238.342,520.36 238.206,519.687 237.934,519.098 C 237.661,518.509 237.293,517.997 236.831,517.56 C 236.368,517.124 235.835,516.758 235.231,516.462 C 234.628,516.166 233.992,515.93 233.324,515.754 L 233.324,515.675 C 234.203,515.611 235.014,515.464 235.758,515.236 C 236.502,515.007 237.147,514.682 237.692,514.26 C 238.237,513.838 238.663,513.317 238.971,512.696 C 239.278,512.075 239.432,511.339 239.432,510.49 C 239.432,509.775 239.334,509.13 239.138,508.556 C 238.941,507.982 238.67,507.472 238.325,507.027 C 237.979,506.582 237.57,506.201 237.099,505.884 C 236.627,505.568 236.116,505.307 235.565,505.102 C 235.015,504.897 234.434,504.746 233.825,504.649 C 233.215,504.553 232.6,504.504 231.979,504.504 C 231.464,504.504 230.97,504.534 230.498,504.592 Z M 233.886,505.827 C 234.519,506.006 235.068,506.287 235.534,506.671 C 236,507.054 236.366,507.547 236.633,508.147 C 236.899,508.748 237.033,509.467 237.033,510.305 C 237.033,511.084 236.898,511.768 236.629,512.357 C 236.359,512.946 235.968,513.437 235.455,513.829 C 234.942,514.222 234.311,514.517 233.561,514.713 C 232.811,514.909 231.956,515.007 230.995,515.007 C 230.807,515.007 230.615,515.003 230.419,514.994 C 230.223,514.985 230.025,514.975 229.826,514.963 C 229.814,514.606 229.799,514.188 229.782,513.711 C 229.764,513.233 229.744,512.722 229.72,512.177 C 229.697,511.632 229.672,511.07 229.646,510.49 C 229.619,509.909 229.592,509.341 229.562,508.784 C 229.533,508.228 229.504,507.698 229.474,507.194 C 229.445,506.69 229.415,506.241 229.386,505.849 C 229.826,505.737 230.245,505.661 230.643,505.62 C 231.041,505.579 231.443,505.559 231.847,505.559 C 232.574,505.559 233.253,505.648 233.886,505.827 Z M 231.368,516.066 C 231.869,516.139 232.347,516.249 232.801,516.396 C 233.255,516.542 233.676,516.734 234.062,516.971 C 234.449,517.209 234.784,517.495 235.068,517.828 C 235.352,518.162 235.575,518.553 235.736,519.002 C 235.898,519.45 235.978,519.961 235.978,520.535 C 235.978,521.209 235.87,521.778 235.653,522.24 C 235.436,522.703 235.139,523.075 234.761,523.357 C 234.383,523.638 233.941,523.84 233.434,523.963 C 232.927,524.086 232.384,524.148 231.803,524.148 C 231.522,524.148 231.234,524.136 230.938,524.113 C 230.642,524.089 230.344,524.054 230.046,524.007 C 230.04,523.626 230.031,523.159 230.019,522.605 C 230.007,522.051 229.993,521.43 229.975,520.742 C 229.958,520.053 229.939,519.305 229.918,518.496 C 229.898,517.688 229.876,516.835 229.852,515.939 C 230.362,515.95 230.867,515.993 231.368,516.066 Z" marker-start="none" marker-end="none"/>
       <path d="M 243.954,504.75 C 243.377,505.067 242.894,505.484 242.504,506.003 C 242.115,506.521 241.819,507.112 241.616,507.774 C 241.414,508.436 241.313,509.112 241.313,509.804 C 241.313,510.396 241.375,510.996 241.498,511.606 C 241.621,512.215 241.802,512.805 242.043,513.377 C 242.283,513.948 242.58,514.484 242.935,514.985 C 243.289,515.486 243.698,515.924 244.161,516.299 C 244.624,516.674 245.14,516.97 245.708,517.187 C 246.276,517.404 246.894,517.512 247.562,517.512 C 248.312,517.512 248.976,517.354 249.553,517.037 C 250.13,516.721 250.615,516.303 251.008,515.785 C 251.4,515.266 251.698,514.676 251.9,514.014 C 252.102,513.352 252.203,512.675 252.203,511.984 C 252.203,511.392 252.141,510.791 252.018,510.182 C 251.895,509.572 251.712,508.982 251.469,508.411 C 251.226,507.839 250.927,507.303 250.572,506.802 C 250.218,506.301 249.809,505.863 249.346,505.489 C 248.883,505.113 248.368,504.817 247.8,504.601 C 247.231,504.384 246.613,504.276 245.945,504.276 C 245.195,504.276 244.532,504.434 243.954,504.75 Z M 248.032,505.792 C 248.357,505.976 248.639,506.221 248.876,506.526 C 249.114,506.831 249.31,507.179 249.465,507.572 C 249.621,507.964 249.745,508.37 249.839,508.789 C 249.933,509.208 249.998,509.622 250.036,510.032 C 250.074,510.442 250.093,510.82 250.093,511.166 C 250.093,511.57 250.063,511.976 250.001,512.384 C 249.94,512.791 249.845,513.183 249.716,513.561 C 249.587,513.939 249.427,514.294 249.237,514.625 C 249.046,514.956 248.821,515.243 248.56,515.486 C 248.299,515.729 248.006,515.921 247.681,516.062 C 247.356,516.202 246.997,516.273 246.604,516.273 C 246.176,516.273 245.8,516.182 245.475,516 C 245.149,515.819 244.868,515.576 244.631,515.271 C 244.394,514.966 244.197,514.617 244.042,514.225 C 243.887,513.832 243.762,513.428 243.669,513.012 C 243.575,512.596 243.509,512.182 243.471,511.768 C 243.433,511.355 243.414,510.979 243.414,510.639 C 243.414,510.241 243.445,509.836 243.506,509.426 C 243.568,509.016 243.663,508.62 243.792,508.24 C 243.92,507.859 244.08,507.503 244.271,507.172 C 244.461,506.84 244.687,506.552 244.947,506.306 C 245.208,506.06 245.501,505.866 245.826,505.726 C 246.152,505.585 246.511,505.515 246.903,505.515 C 247.331,505.515 247.707,505.607 248.032,505.792 Z" marker-start="none" marker-end="none"/>
       <path d="M 256.751,504.75 C 256.174,505.067 255.691,505.484 255.301,506.003 C 254.912,506.521 254.616,507.112 254.413,507.774 C 254.211,508.436 254.11,509.112 254.11,509.804 C 254.11,510.396 254.172,510.996 254.295,511.606 C 254.418,512.215 254.599,512.805 254.84,513.377 C 255.08,513.948 255.377,514.484 255.732,514.985 C 256.086,515.486 256.495,515.924 256.958,516.299 C 257.421,516.674 257.937,516.97 258.505,517.187 C 259.073,517.404 259.691,517.512 260.359,517.512 C 261.109,517.512 261.773,517.354 262.35,517.037 C 262.927,516.721 263.412,516.303 263.805,515.785 C 264.197,515.266 264.495,514.676 264.697,514.014 C 264.899,513.352 265,512.675 265,511.984 C 265,511.392 264.938,510.791 264.815,510.182 C 264.692,509.572 264.509,508.982 264.266,508.411 C 264.023,507.839 263.724,507.303 263.369,506.802 C 263.015,506.301 262.606,505.863 262.143,505.489 C 261.68,505.113 261.165,504.817 260.597,504.601 C 260.028,504.384 259.41,504.276 258.742,504.276 C 257.992,504.276 257.329,504.434 256.751,504.75 Z M 260.829,505.792 C 261.154,505.976 261.436,506.221 261.673,506.526 C 261.911,506.831 262.107,507.179 262.262,507.572 C 262.418,507.964 262.542,508.37 262.636,508.789 C 262.73,509.208 262.795,509.622 262.833,510.032 C 262.871,510.442 262.89,510.82 262.89,511.166 C 262.89,511.57 262.86,511.976 262.798,512.384 C 262.737,512.791 262.642,513.183 262.513,513.561 C 262.384,513.939 262.224,514.294 262.034,514.625 C 261.843,514.956 261.618,515.243 261.357,515.486 C 261.096,515.729 260.803,515.921 260.478,516.062 C 260.153,516.202 259.794,516.273 259.401,516.273 C 258.973,516.273 258.597,516.182 258.272,516 C 257.946,515.819 257.665,515.576 257.428,515.271 C 257.191,514.966 256.994,514.617 256.839,514.225 C 256.684,513.832 256.559,513.428 256.466,513.012 C 256.372,512.596 256.306,512.182 256.268,511.768 C 256.23,511.355 256.211,510.979 256.211,510.639 C 256.211,510.241 256.242,509.836 256.303,509.426 C 256.365,509.016 256.46,508.62 256.589,508.24 C 256.717,507.859 256.877,507.503 257.068,507.172 C 257.258,506.84 257.484,506.552 257.744,506.306 C 258.005,506.06 258.298,505.866 258.623,505.726 C 258.949,505.585 259.308,505.515 259.7,505.515 C 260.128,505.515 260.504,505.607 260.829,505.792 Z" marker-start="none" marker-end="none"/>
       <path d="M 283.879,504.618 C 283.697,504.788 283.561,505.02 283.47,505.313 C 283.379,505.606 283.321,505.949 283.294,506.341 C 283.268,506.734 283.255,507.155 283.255,507.607 C 283.255,508.151 283.274,508.723 283.312,509.321 C 283.35,509.918 283.392,510.487 283.439,511.026 C 283.486,511.565 283.529,512.052 283.567,512.489 C 283.605,512.925 283.624,513.255 283.624,513.478 C 283.624,514.116 283.511,514.595 283.286,514.915 C 283.06,515.234 282.754,515.394 282.367,515.394 C 282.069,515.394 281.751,515.252 281.414,514.968 C 281.077,514.684 280.74,514.292 280.403,513.794 C 280.066,513.296 279.741,512.709 279.427,512.032 C 279.114,511.355 278.831,510.621 278.579,509.83 C 278.327,509.039 278.115,508.211 277.942,507.347 C 277.769,506.483 277.656,505.617 277.603,504.75 L 275.767,504.522 L 275.626,504.531 C 275.69,505.761 275.751,506.851 275.806,507.8 C 275.862,508.749 275.912,509.578 275.956,510.287 C 275.999,510.996 276.035,511.597 276.061,512.089 C 276.088,512.582 276.101,512.989 276.101,513.311 C 276.101,513.967 275.988,514.462 275.762,514.796 C 275.536,515.13 275.248,515.297 274.896,515.297 C 274.586,515.297 274.259,515.158 273.916,514.88 C 273.574,514.601 273.235,514.216 272.901,513.724 C 272.567,513.231 272.246,512.65 271.939,511.979 C 271.631,511.308 271.353,510.583 271.104,509.804 C 270.855,509.025 270.647,508.205 270.48,507.343 C 270.313,506.482 270.203,505.617 270.15,504.75 L 268.313,504.522 L 268.173,504.531 C 268.22,505.087 268.264,505.693 268.305,506.35 C 268.346,507.006 268.384,507.672 268.419,508.349 C 268.454,509.026 268.485,509.697 268.511,510.362 C 268.537,511.027 268.561,511.648 268.582,512.225 C 268.602,512.802 268.616,513.32 268.625,513.777 C 268.634,514.234 268.639,514.594 268.639,514.858 C 268.639,515.098 268.621,515.3 268.586,515.464 C 268.551,515.628 268.497,515.758 268.423,515.855 C 268.35,515.952 268.258,516.021 268.146,516.062 C 268.035,516.103 267.903,516.123 267.751,516.123 C 267.54,516.123 267.288,516.094 266.995,516.035 C 266.702,515.977 266.368,515.898 265.993,515.798 L 265.861,516.431 C 266.277,516.577 266.677,516.711 267.061,516.831 C 267.445,516.951 267.798,517.055 268.12,517.143 C 268.443,517.231 268.727,517.298 268.973,517.345 C 269.219,517.392 269.412,517.415 269.553,517.415 C 269.893,517.415 270.158,517.314 270.348,517.112 C 270.539,516.91 270.634,516.563 270.634,516.071 C 270.634,515.953 270.622,515.703 270.599,515.319 C 270.575,514.935 270.542,514.453 270.498,513.873 C 270.454,513.293 270.399,512.631 270.335,511.887 C 270.27,511.143 270.197,510.352 270.115,509.514 L 270.168,509.505 C 270.578,510.993 271.015,512.243 271.478,513.254 C 271.94,514.264 272.412,515.08 272.893,515.701 C 273.373,516.323 273.856,516.766 274.343,517.033 C 274.829,517.299 275.301,517.433 275.758,517.433 C 276.162,517.433 276.505,517.333 276.786,517.134 C 277.067,516.935 277.296,516.674 277.472,516.352 C 277.647,516.029 277.776,515.665 277.858,515.258 C 277.941,514.85 277.982,514.436 277.981,514.014 C 277.982,513.645 277.97,513.254 277.946,512.841 C 277.923,512.428 277.894,512.02 277.858,511.619 C 277.823,511.217 277.787,510.836 277.749,510.476 C 277.711,510.116 277.677,509.801 277.647,509.532 L 277.7,509.523 C 278.11,511.035 278.548,512.302 279.014,513.324 C 279.48,514.347 279.954,515.168 280.438,515.789 C 280.921,516.41 281.406,516.854 281.893,517.121 C 282.379,517.387 282.851,517.521 283.308,517.521 C 283.601,517.521 283.885,517.459 284.16,517.336 C 284.436,517.213 284.68,517.015 284.894,516.743 C 285.108,516.47 285.279,516.12 285.408,515.693 C 285.537,515.265 285.602,514.749 285.602,514.146 C 285.602,513.976 285.591,513.743 285.571,513.447 C 285.55,513.151 285.526,512.822 285.496,512.458 C 285.467,512.095 285.433,511.71 285.395,511.302 C 285.357,510.895 285.323,510.495 285.294,510.103 C 285.265,509.71 285.24,509.337 285.219,508.982 C 285.199,508.628 285.188,508.322 285.188,508.064 C 285.188,507.607 285.208,507.235 285.246,506.948 C 285.284,506.66 285.347,506.433 285.435,506.266 C 285.523,506.1 285.64,505.985 285.786,505.924 C 285.933,505.862 286.111,505.831 286.322,505.831 C 286.627,505.831 286.943,505.874 287.271,505.959 C 287.6,506.044 287.931,506.162 288.265,506.315 L 288.432,505.858 C 288.221,505.688 287.954,505.515 287.632,505.339 C 287.309,505.164 286.971,505.002 286.617,504.856 C 286.262,504.709 285.909,504.591 285.558,504.5 C 285.206,504.409 284.895,504.363 284.626,504.364 C 284.309,504.363 284.06,504.448 283.879,504.618 Z" marker-start="none" marker-end="none"/>
       <path d="M 291.965,504.706 C 291.379,504.994 290.875,505.386 290.453,505.884 C 290.031,506.382 289.702,506.967 289.464,507.637 C 289.227,508.308 289.108,509.027 289.108,509.795 C 289.108,510.422 289.177,511.049 289.315,511.676 C 289.453,512.303 289.652,512.901 289.913,513.469 C 290.174,514.038 290.491,514.566 290.866,515.055 C 291.241,515.545 291.668,515.97 292.145,516.33 C 292.623,516.69 293.147,516.973 293.718,517.178 C 294.29,517.383 294.903,517.485 295.559,517.486 C 295.993,517.485 296.406,517.427 296.799,517.31 C 297.191,517.193 297.536,517.024 297.831,516.804 C 298.127,516.585 298.363,516.314 298.539,515.991 C 298.715,515.669 298.803,515.303 298.803,514.893 C 298.803,514.295 298.608,513.774 298.218,513.328 C 297.829,512.883 297.291,512.505 296.605,512.195 C 295.92,511.884 295.113,511.634 294.184,511.443 C 293.255,511.253 292.252,511.111 291.174,511.017 L 291.174,510.867 C 291.174,510.117 291.269,509.432 291.459,508.811 C 291.65,508.19 291.912,507.658 292.246,507.216 C 292.58,506.773 292.972,506.429 293.424,506.183 C 293.875,505.937 294.361,505.814 294.883,505.814 C 295.41,505.814 295.951,505.944 296.504,506.205 C 297.058,506.466 297.619,506.889 298.187,507.475 C 298.223,507.457 298.268,507.433 298.324,507.4 C 298.379,507.368 298.43,507.333 298.477,507.295 C 298.524,507.256 298.566,507.215 298.601,507.172 C 298.636,507.128 298.653,507.085 298.653,507.044 C 298.653,507.021 298.644,506.997 298.627,506.974 C 298.299,506.517 297.946,506.12 297.568,505.783 C 297.19,505.446 296.797,505.165 296.39,504.939 C 295.983,504.714 295.568,504.547 295.146,504.438 C 294.725,504.33 294.309,504.276 293.898,504.276 C 293.195,504.276 292.551,504.419 291.965,504.706 Z M 293.463,512.094 C 294.123,512.237 294.679,512.422 295.133,512.647 C 295.587,512.873 295.934,513.142 296.175,513.456 C 296.415,513.769 296.535,514.128 296.535,514.532 C 296.535,514.802 296.49,515.054 296.399,515.288 C 296.308,515.523 296.182,515.727 296.021,515.899 C 295.86,516.072 295.668,516.208 295.445,516.308 C 295.223,516.407 294.983,516.457 294.725,516.457 C 294.344,516.457 293.998,516.39 293.687,516.255 C 293.377,516.12 293.098,515.937 292.852,515.706 C 292.606,515.475 292.39,515.205 292.202,514.897 C 292.015,514.59 291.855,514.263 291.723,513.917 C 291.591,513.571 291.484,513.217 291.402,512.854 C 291.32,512.49 291.261,512.136 291.226,511.79 C 292.058,511.849 292.804,511.95 293.463,512.094 Z" marker-start="none" marker-end="none"/>
       <path d="M 301.694,504.522 L 301.554,504.531 C 301.601,505.087 301.645,505.693 301.686,506.35 C 301.727,507.006 301.765,507.672 301.8,508.349 C 301.835,509.026 301.866,509.697 301.892,510.362 C 301.918,511.027 301.942,511.648 301.963,512.225 C 301.983,512.802 301.997,513.32 302.006,513.777 C 302.015,514.234 302.02,514.594 302.02,514.858 C 302.02,515.074 302.011,515.262 301.993,515.42 C 301.976,515.578 301.936,515.71 301.875,515.816 C 301.813,515.921 301.724,515.999 301.607,516.049 C 301.489,516.098 301.331,516.123 301.132,516.123 C 301.032,516.123 300.93,516.117 300.824,516.106 C 300.719,516.094 300.602,516.076 300.473,516.053 C 300.344,516.029 300.199,515.999 300.038,515.961 C 299.877,515.923 299.691,515.877 299.48,515.824 L 299.348,516.457 C 300.32,516.809 301.108,517.057 301.712,517.2 C 302.315,517.344 302.723,517.415 302.934,517.415 C 303.321,517.415 303.597,517.303 303.764,517.077 C 303.931,516.851 304.015,516.516 304.015,516.071 C 304.015,516.03 304.009,515.91 303.997,515.71 C 303.986,515.511 303.969,515.252 303.949,514.932 C 303.928,514.613 303.904,514.243 303.874,513.821 C 303.845,513.399 303.811,512.946 303.773,512.463 C 303.735,511.979 303.692,511.475 303.646,510.951 C 303.599,510.427 303.549,509.904 303.496,509.382 L 303.584,509.373 C 303.865,510.522 304.183,511.593 304.538,512.586 C 304.892,513.579 305.291,514.442 305.733,515.174 C 306.175,515.906 306.662,516.482 307.192,516.901 C 307.723,517.32 308.304,517.53 308.937,517.53 C 309.16,517.53 309.368,517.494 309.561,517.424 C 309.754,517.354 309.921,517.256 310.062,517.13 C 310.202,517.004 310.313,516.854 310.396,516.681 C 310.478,516.509 310.519,516.32 310.519,516.115 C 310.519,515.851 310.462,515.597 310.347,515.354 C 310.233,515.111 310.053,514.896 309.807,514.708 L 309.736,514.708 C 309.49,514.914 309.257,515.062 309.038,515.152 C 308.818,515.243 308.585,515.288 308.339,515.288 C 308.075,515.288 307.82,515.239 307.574,515.139 C 307.328,515.039 307.103,514.896 306.898,514.708 C 306.563,514.404 306.253,514.001 305.966,513.5 C 305.679,512.999 305.417,512.444 305.179,511.834 C 304.942,511.225 304.728,510.585 304.538,509.914 C 304.347,509.243 304.183,508.59 304.046,507.954 C 303.908,507.318 303.796,506.72 303.712,506.161 C 303.626,505.601 303.566,505.131 303.531,504.75 L 301.694,504.522 Z" marker-start="none" marker-end="none"/>
       <path d="M 326.919,504.434 C 326.544,504.492 326.135,504.558 325.693,504.632 C 325.25,504.705 324.771,504.771 324.256,504.829 C 323.74,504.888 323.184,504.917 322.586,504.917 C 322.053,504.917 321.474,504.884 320.85,504.816 C 320.226,504.749 319.586,504.636 318.93,504.478 L 318.771,504.495 C 318.871,505.298 318.958,506.161 319.031,507.084 C 319.104,508.007 319.166,508.966 319.215,509.962 C 319.265,510.958 319.308,511.978 319.343,513.021 C 319.378,514.064 319.404,515.107 319.422,516.15 C 319.439,517.193 319.451,518.221 319.457,519.235 C 319.463,520.248 319.466,521.227 319.466,522.17 C 319.466,522.445 319.452,522.681 319.426,522.878 C 319.4,523.074 319.34,523.234 319.246,523.357 C 319.152,523.48 319.019,523.569 318.846,523.625 C 318.674,523.68 318.444,523.708 318.156,523.708 C 317.963,523.708 317.726,523.698 317.444,523.677 C 317.163,523.657 316.87,523.623 316.565,523.576 L 316.478,524.306 C 317.339,524.529 318.079,524.693 318.697,524.798 C 319.315,524.903 319.826,524.956 320.23,524.956 C 320.617,524.956 320.914,524.905 321.123,524.802 C 321.33,524.7 321.483,524.547 321.58,524.345 C 321.676,524.143 321.733,523.896 321.751,523.603 C 321.768,523.31 321.777,522.976 321.777,522.601 C 321.777,522.577 321.774,522.384 321.769,522.021 C 321.763,521.658 321.752,521.176 321.738,520.575 C 321.723,519.974 321.705,519.277 321.685,518.483 C 321.664,517.689 321.641,516.849 321.615,515.961 C 321.588,515.073 321.558,514.16 321.522,513.223 C 321.487,512.285 321.448,511.374 321.404,510.49 C 321.36,509.605 321.313,508.767 321.263,507.976 C 321.213,507.185 321.159,506.494 321.101,505.902 C 321.663,505.984 322.193,506.044 322.691,506.082 C 323.189,506.12 323.652,506.139 324.08,506.139 C 324.684,506.139 325.248,506.123 325.772,506.091 C 326.296,506.059 326.813,506.042 327.323,506.042 C 327.681,506.042 327.999,506.095 328.277,506.2 C 328.555,506.306 328.794,506.491 328.993,506.754 C 329.192,507.018 329.358,507.375 329.49,507.826 C 329.621,508.278 329.722,508.852 329.793,509.549 L 330.558,509.488 C 330.552,508.456 330.489,507.608 330.369,506.943 C 330.248,506.278 330.077,505.754 329.854,505.37 C 329.632,504.986 329.361,504.72 329.041,504.57 C 328.722,504.421 328.357,504.346 327.947,504.346 C 327.637,504.346 327.294,504.375 326.919,504.434 Z" marker-start="none" marker-end="none"/>
       <path d="M 333.853,504.403 C 333.719,504.43 333.597,504.495 333.489,504.601 C 333.38,504.706 333.284,504.862 333.199,505.067 C 333.114,505.272 333.043,505.55 332.988,505.902 C 332.932,506.253 332.89,506.692 332.86,507.22 C 332.831,507.747 332.816,508.386 332.816,509.136 C 332.816,509.576 332.82,510.072 332.829,510.626 C 332.838,511.179 332.852,511.774 332.869,512.41 C 332.887,513.045 332.91,513.716 332.939,514.423 C 332.969,515.129 333.007,515.857 333.054,516.607 C 333.065,516.771 333.109,516.904 333.185,517.007 C 333.262,517.109 333.355,517.188 333.467,517.244 C 333.578,517.3 333.697,517.338 333.823,517.358 C 333.949,517.379 334.064,517.389 334.17,517.389 C 334.562,517.389 334.931,517.298 335.277,517.116 C 335.177,516.448 335.092,515.779 335.022,515.108 C 334.952,514.437 334.895,513.788 334.851,513.161 C 334.807,512.534 334.775,511.941 334.754,511.382 C 334.734,510.822 334.723,510.317 334.723,509.865 C 334.723,509.256 334.732,508.733 334.75,508.297 C 334.768,507.86 334.797,507.492 334.838,507.194 C 334.879,506.895 334.93,506.656 334.992,506.477 C 335.053,506.298 335.129,506.161 335.22,506.064 C 335.311,505.968 335.416,505.905 335.536,505.875 C 335.657,505.846 335.793,505.831 335.945,505.831 C 336.227,505.831 336.53,505.874 336.855,505.959 C 337.18,506.044 337.51,506.162 337.844,506.315 L 338.011,505.858 C 337.8,505.688 337.534,505.515 337.215,505.339 C 336.896,505.164 336.56,505.002 336.209,504.856 C 335.857,504.709 335.513,504.591 335.176,504.5 C 334.839,504.409 334.548,504.363 334.302,504.364 C 334.138,504.363 333.988,504.377 333.853,504.403 Z" marker-start="none" marker-end="none"/>
       <path d="M 333.928,496.014 C 333.545,496.114 333.212,496.248 332.931,496.418 C 332.65,496.588 332.428,496.786 332.267,497.011 C 332.106,497.237 332.025,497.476 332.025,497.728 C 332.025,497.868 332.058,498.008 332.122,498.145 C 332.187,498.283 332.276,498.405 332.39,498.51 C 332.504,498.616 332.639,498.702 332.795,498.769 C 332.95,498.837 333.118,498.87 333.3,498.87 C 333.47,498.566 333.657,498.307 333.862,498.093 C 334.068,497.879 334.287,497.703 334.522,497.565 C 334.756,497.428 334.999,497.327 335.251,497.262 C 335.503,497.198 335.758,497.165 336.016,497.165 C 336.689,497.165 337.262,497.384 337.734,497.82 C 338.206,498.257 338.601,498.875 338.92,499.675 C 339.24,500.474 339.49,501.44 339.672,502.571 C 339.854,503.701 339.993,504.959 340.089,506.345 C 340.186,507.731 340.251,509.228 340.283,510.837 C 340.315,512.445 340.337,514.131 340.349,515.895 C 339.798,515.889 339.288,515.869 338.819,515.833 C 338.35,515.798 337.958,515.722 337.642,515.605 C 337.618,515.657 337.607,515.713 337.607,515.772 C 337.607,515.913 337.674,516.043 337.809,516.163 C 337.944,516.283 338.133,516.39 338.376,516.484 C 338.619,516.577 338.911,516.654 339.254,516.712 C 339.597,516.771 339.977,516.809 340.393,516.826 C 340.416,517.377 340.445,517.903 340.481,518.404 C 340.516,518.905 340.561,519.4 340.617,519.889 C 340.673,520.379 340.741,520.869 340.823,521.362 C 340.905,521.854 341.008,522.364 341.131,522.891 C 341.289,523.577 341.494,524.193 341.746,524.741 C 341.998,525.289 342.284,525.775 342.603,526.2 C 342.922,526.625 343.268,526.989 343.64,527.294 C 344.012,527.599 344.395,527.849 344.787,528.046 C 345.18,528.242 345.578,528.385 345.982,528.476 C 346.387,528.567 346.782,528.612 347.169,528.613 C 347.737,528.612 348.243,528.538 348.685,528.388 C 349.128,528.239 349.503,528.043 349.81,527.8 C 350.118,527.556 350.352,527.282 350.513,526.978 C 350.674,526.673 350.755,526.362 350.755,526.046 C 350.755,525.8 350.715,525.58 350.636,525.387 C 350.557,525.194 350.449,525.031 350.311,524.899 C 350.174,524.768 350.014,524.666 349.832,524.596 C 349.65,524.525 349.457,524.49 349.252,524.49 C 348.983,524.49 348.698,524.558 348.399,524.693 L 348.364,524.789 C 348.476,525.047 348.559,525.273 348.615,525.466 C 348.671,525.66 348.698,525.859 348.698,526.064 C 348.698,526.345 348.641,526.586 348.527,526.789 C 348.413,526.991 348.263,527.156 348.079,527.285 C 347.894,527.414 347.689,527.508 347.463,527.567 C 347.238,527.625 347.014,527.655 346.791,527.655 C 346.135,527.655 345.58,527.508 345.126,527.215 C 344.672,526.922 344.294,526.519 343.992,526.007 C 343.69,525.494 343.451,524.89 343.275,524.196 C 343.1,523.502 342.967,522.753 342.876,521.95 C 342.785,521.148 342.72,520.308 342.682,519.432 C 342.644,518.556 342.61,517.682 342.581,516.809 C 342.874,516.797 343.157,516.788 343.429,516.782 C 343.702,516.776 343.956,516.772 344.194,516.769 C 344.431,516.767 344.645,516.764 344.836,516.761 C 345.026,516.758 345.188,516.756 345.323,516.756 C 345.593,516.756 345.848,516.765 346.088,516.782 C 346.328,516.8 346.533,516.818 346.703,516.835 C 346.768,516.613 346.8,516.437 346.8,516.308 C 346.8,516.05 346.693,515.88 346.479,515.798 C 346.265,515.716 345.956,515.675 345.552,515.675 C 345.148,515.675 344.696,515.697 344.198,515.741 C 343.7,515.785 343.153,515.827 342.555,515.868 C 342.531,515.171 342.502,514.413 342.467,513.592 C 342.432,512.772 342.386,511.922 342.331,511.043 C 342.275,510.164 342.206,509.272 342.124,508.367 C 342.042,507.462 341.941,506.579 341.821,505.717 C 341.701,504.856 341.559,504.034 341.395,503.252 C 341.23,502.469 341.04,501.759 340.823,501.12 C 340.477,500.118 340.088,499.282 339.654,498.611 C 339.221,497.94 338.759,497.401 338.27,496.994 C 337.781,496.587 337.274,496.297 336.75,496.124 C 336.225,495.951 335.702,495.864 335.181,495.865 C 334.73,495.864 334.312,495.914 333.928,496.014 Z" marker-start="none" marker-end="none"/>
       <path d="M 349.762,504.706 C 349.176,504.994 348.672,505.386 348.25,505.884 C 347.828,506.382 347.499,506.967 347.261,507.637 C 347.024,508.308 346.905,509.027 346.905,509.795 C 346.905,510.422 346.974,511.049 347.112,511.676 C 347.25,512.303 347.449,512.901 347.71,513.469 C 347.971,514.038 348.288,514.566 348.663,515.055 C 349.038,515.545 349.465,515.97 349.942,516.33 C 350.42,516.69 350.944,516.973 351.515,517.178 C 352.087,517.383 352.7,517.485 353.356,517.486 C 353.79,517.485 354.203,517.427 354.596,517.31 C 354.988,517.193 355.333,517.024 355.628,516.804 C 355.924,516.585 356.16,516.314 356.336,515.991 C 356.512,515.669 356.6,515.303 356.6,514.893 C 356.6,514.295 356.405,513.774 356.015,513.328 C 355.626,512.883 355.088,512.505 354.402,512.195 C 353.717,511.884 352.91,511.634 351.981,511.443 C 351.052,511.253 350.049,511.111 348.971,511.017 L 348.971,510.867 C 348.971,510.117 349.066,509.432 349.256,508.811 C 349.447,508.19 349.709,507.658 350.043,507.216 C 350.377,506.773 350.769,506.429 351.221,506.183 C 351.672,505.937 352.158,505.814 352.68,505.814 C 353.207,505.814 353.748,505.944 354.301,506.205 C 354.855,506.466 355.416,506.889 355.984,507.475 C 356.02,507.457 356.065,507.433 356.121,507.4 C 356.176,507.368 356.227,507.333 356.274,507.295 C 356.321,507.256 356.363,507.215 356.398,507.172 C 356.433,507.128 356.45,507.085 356.45,507.044 C 356.45,507.021 356.441,506.997 356.424,506.974 C 356.096,506.517 355.743,506.12 355.365,505.783 C 354.987,505.446 354.594,505.165 354.187,504.939 C 353.78,504.714 353.365,504.547 352.943,504.438 C 352.522,504.33 352.106,504.276 351.695,504.276 C 350.992,504.276 350.348,504.419 349.762,504.706 Z M 351.26,512.094 C 351.92,512.237 352.476,512.422 352.93,512.647 C 353.384,512.873 353.731,513.142 353.972,513.456 C 354.212,513.769 354.332,514.128 354.332,514.532 C 354.332,514.802 354.287,515.054 354.196,515.288 C 354.105,515.523 353.979,515.727 353.818,515.899 C 353.657,516.072 353.465,516.208 353.242,516.308 C 353.02,516.407 352.78,516.457 352.522,516.457 C 352.141,516.457 351.795,516.39 351.484,516.255 C 351.174,516.12 350.895,515.937 350.649,515.706 C 350.403,515.475 350.187,515.205 349.999,514.897 C 349.812,514.59 349.652,514.263 349.52,513.917 C 349.388,513.571 349.281,513.217 349.199,512.854 C 349.117,512.49 349.058,512.136 349.023,511.79 C 349.855,511.849 350.601,511.95 351.26,512.094 Z" marker-start="none" marker-end="none"/>
       <path d="M 360.972,504.355 C 360.641,504.401 360.32,504.472 360.01,504.566 C 359.699,504.659 359.405,504.775 359.127,504.913 C 358.848,505.05 358.605,505.209 358.397,505.387 C 358.189,505.566 358.025,505.765 357.905,505.985 C 357.785,506.205 357.725,506.447 357.725,506.71 C 357.725,506.939 357.773,507.132 357.87,507.29 C 357.966,507.448 358.094,507.577 358.252,507.677 C 358.41,507.777 358.588,507.852 358.784,507.901 C 358.98,507.951 359.181,507.979 359.386,507.985 L 359.456,507.923 C 359.497,507.478 359.616,507.094 359.812,506.772 C 360.008,506.45 360.25,506.186 360.537,505.981 C 360.825,505.775 361.142,505.623 361.491,505.524 C 361.839,505.424 362.187,505.374 362.532,505.374 C 362.855,505.374 363.165,505.418 363.464,505.506 C 363.763,505.594 364.026,505.72 364.255,505.884 C 364.484,506.048 364.667,506.25 364.804,506.49 C 364.942,506.731 365.011,507 365.011,507.299 C 365.011,507.61 364.938,507.882 364.791,508.116 C 364.645,508.351 364.448,508.565 364.202,508.758 C 363.956,508.951 363.671,509.13 363.345,509.294 C 363.02,509.458 362.682,509.625 362.33,509.795 C 362.02,509.942 361.708,510.09 361.394,510.239 C 361.081,510.388 360.778,510.551 360.485,510.727 C 360.192,510.902 359.918,511.093 359.663,511.298 C 359.408,511.503 359.185,511.73 358.995,511.979 C 358.804,512.228 358.655,512.507 358.547,512.814 C 358.438,513.122 358.384,513.463 358.384,513.838 C 358.384,514.243 358.454,514.615 358.595,514.954 C 358.736,515.294 358.928,515.6 359.171,515.873 C 359.414,516.145 359.695,516.384 360.014,516.589 C 360.334,516.794 360.675,516.965 361.038,517.103 C 361.402,517.241 361.775,517.343 362.159,517.411 C 362.543,517.478 362.916,517.512 363.28,517.512 C 363.748,517.512 364.192,517.461 364.611,517.358 C 365.03,517.255 365.396,517.106 365.71,516.91 C 366.023,516.713 366.272,516.475 366.457,516.194 C 366.641,515.912 366.734,515.596 366.734,515.244 C 366.734,515.11 366.71,514.963 366.663,514.805 C 366.617,514.647 366.538,514.499 366.426,514.361 C 366.315,514.223 366.168,514.108 365.987,514.014 C 365.805,513.92 365.582,513.87 365.319,513.865 C 365.072,513.864 364.815,513.902 364.545,513.979 L 364.519,514.067 C 364.601,514.254 364.659,514.427 364.695,514.585 C 364.73,514.744 364.747,514.89 364.747,515.025 C 364.741,515.294 364.673,515.521 364.541,515.706 C 364.409,515.891 364.244,516.041 364.044,516.158 C 363.845,516.275 363.624,516.36 363.381,516.413 C 363.137,516.466 362.899,516.492 362.664,516.492 C 362.248,516.492 361.876,516.437 361.548,516.325 C 361.22,516.214 360.943,516.066 360.718,515.882 C 360.492,515.697 360.319,515.488 360.199,515.253 C 360.079,515.019 360.019,514.776 360.019,514.524 C 360.019,514.202 360.104,513.913 360.274,513.658 C 360.444,513.403 360.669,513.169 360.95,512.955 C 361.232,512.741 361.556,512.54 361.922,512.353 C 362.288,512.165 362.67,511.978 363.069,511.79 C 363.514,511.579 363.956,511.361 364.396,511.136 C 364.835,510.91 365.228,510.654 365.573,510.366 C 365.919,510.079 366.199,509.75 366.413,509.378 C 366.627,509.006 366.734,508.568 366.734,508.064 C 366.734,507.46 366.6,506.924 366.334,506.455 C 366.067,505.987 365.711,505.591 365.266,505.269 C 364.821,504.947 364.31,504.702 363.732,504.535 C 363.155,504.368 362.556,504.284 361.935,504.284 C 361.624,504.284 361.304,504.308 360.972,504.355 Z" marker-start="none" marker-end="none"/>
       <path d="M 371.256,504.509 C 370.931,504.652 370.65,504.907 370.412,505.273 C 370.175,505.64 369.99,506.133 369.858,506.754 C 369.726,507.375 369.661,508.16 369.661,509.11 C 369.661,509.643 369.669,510.192 369.687,510.758 C 369.704,511.323 369.728,511.896 369.757,512.476 C 369.787,513.056 369.825,513.636 369.872,514.216 C 369.918,514.796 369.971,515.367 370.03,515.93 C 369.567,515.924 369.138,515.905 368.742,515.873 C 368.346,515.841 368.008,515.79 367.727,515.719 C 367.709,515.754 367.701,515.795 367.701,515.842 C 367.701,515.965 367.761,516.081 367.881,516.189 C 368.001,516.298 368.168,516.396 368.382,516.484 C 368.596,516.571 368.852,516.645 369.151,516.703 C 369.45,516.762 369.778,516.803 370.135,516.826 C 370.27,518.051 370.413,519.208 370.566,520.298 C 370.718,521.388 370.871,522.361 371.023,523.216 C 371.052,523.369 371.106,523.495 371.185,523.594 C 371.265,523.694 371.357,523.773 371.462,523.831 C 371.568,523.89 371.682,523.931 371.805,523.954 C 371.928,523.978 372.048,523.989 372.165,523.99 C 372.359,523.989 372.533,523.969 372.688,523.928 C 372.844,523.887 372.989,523.828 373.123,523.752 C 372.877,522.639 372.671,521.489 372.504,520.302 C 372.337,519.116 372.195,517.945 372.078,516.791 C 372.353,516.779 372.621,516.771 372.882,516.765 C 373.143,516.759 373.386,516.753 373.611,516.747 C 373.837,516.741 374.042,516.738 374.226,516.739 C 374.411,516.738 374.565,516.738 374.688,516.739 C 375.221,516.738 375.658,516.771 375.997,516.835 C 376.027,516.736 376.05,516.645 376.068,516.563 C 376.085,516.481 376.094,516.405 376.094,516.334 C 376.094,516.077 375.987,515.91 375.773,515.833 C 375.56,515.757 375.251,515.719 374.846,515.719 C 374.46,515.719 374.027,515.742 373.55,515.789 C 373.072,515.836 372.549,515.88 371.981,515.921 C 371.916,515.294 371.862,514.684 371.818,514.089 C 371.774,513.494 371.739,512.933 371.713,512.406 C 371.687,511.878 371.668,511.389 371.656,510.938 C 371.644,510.487 371.638,510.094 371.638,509.76 C 371.638,509.133 371.67,508.574 371.735,508.081 C 371.799,507.589 371.914,507.172 372.078,506.829 C 372.242,506.486 372.467,506.224 372.754,506.042 C 373.041,505.86 373.405,505.77 373.844,505.77 C 374.161,505.77 374.514,505.825 374.903,505.937 C 375.293,506.048 375.737,506.227 376.235,506.473 C 376.393,506.314 376.484,506.121 376.507,505.893 C 376.144,505.653 375.778,505.434 375.409,505.238 C 375.04,505.042 374.676,504.873 374.319,504.733 C 373.961,504.592 373.616,504.483 373.282,504.407 C 372.948,504.331 372.631,504.293 372.332,504.293 C 371.94,504.293 371.581,504.365 371.256,504.509 Z" marker-start="none" marker-end="none"/>
       <path d="M 376.068,496.001 C 375.846,496.074 375.657,496.17 375.502,496.291 C 375.346,496.411 375.228,496.55 375.146,496.708 C 375.064,496.867 375.023,497.034 375.023,497.209 C 375.023,497.403 375.08,497.603 375.194,497.811 C 375.308,498.019 375.459,498.176 375.647,498.281 C 375.893,498.129 376.142,498.021 376.394,497.956 C 376.646,497.892 376.871,497.859 377.07,497.86 C 377.551,497.859 377.977,497.99 378.349,498.251 C 378.721,498.511 379.072,498.902 379.4,499.424 C 379.728,499.945 380.057,500.599 380.388,501.384 C 380.72,502.169 381.087,503.089 381.491,504.144 L 381.667,504.61 L 381.236,504.671 C 381.084,505.228 380.922,505.811 380.749,506.42 C 380.576,507.029 380.4,507.642 380.221,508.257 C 380.042,508.872 379.864,509.479 379.685,510.076 C 379.506,510.674 379.333,511.243 379.167,511.782 C 379,512.321 378.842,512.82 378.692,513.28 C 378.543,513.74 378.409,514.137 378.292,514.471 C 378.169,514.816 378.05,515.099 377.936,515.319 C 377.822,515.539 377.703,515.71 377.58,515.833 C 377.457,515.956 377.328,516.041 377.193,516.088 C 377.059,516.135 376.909,516.158 376.745,516.158 C 376.558,516.158 376.357,516.138 376.143,516.097 C 375.929,516.056 375.673,516 375.374,515.93 L 375.242,516.563 C 375.594,516.692 375.938,516.809 376.275,516.914 C 376.612,517.02 376.924,517.111 377.211,517.187 C 377.498,517.263 377.753,517.321 377.976,517.363 C 378.198,517.403 378.374,517.424 378.503,517.424 C 378.655,517.424 378.8,517.397 378.938,517.345 C 379.076,517.292 379.21,517.2 379.342,517.068 C 379.474,516.936 379.602,516.755 379.725,516.523 C 379.848,516.292 379.971,516 380.094,515.649 C 380.176,515.426 380.274,515.14 380.388,514.792 C 380.503,514.443 380.627,514.047 380.762,513.605 C 380.897,513.163 381.04,512.681 381.192,512.159 C 381.345,511.638 381.498,511.095 381.654,510.529 C 381.809,509.964 381.963,509.385 382.115,508.793 C 382.268,508.201 382.414,507.615 382.555,507.035 C 382.848,507.803 383.154,508.604 383.473,509.439 C 383.792,510.274 384.118,511.114 384.449,511.957 C 384.78,512.801 385.11,513.638 385.438,514.467 C 385.766,515.296 386.082,516.088 386.387,516.844 C 386.44,516.973 386.511,517.078 386.602,517.16 C 386.693,517.242 386.794,517.308 386.905,517.358 C 387.017,517.408 387.133,517.443 387.253,517.464 C 387.373,517.484 387.491,517.494 387.609,517.494 C 387.802,517.494 387.989,517.466 388.171,517.411 C 388.353,517.355 388.526,517.287 388.69,517.204 C 388.426,516.777 388.152,516.301 387.868,515.776 C 387.584,515.252 387.292,514.692 386.993,514.097 C 386.694,513.502 386.394,512.883 386.092,512.239 C 385.79,511.594 385.49,510.936 385.192,510.265 C 384.893,509.595 384.598,508.921 384.308,508.244 C 384.018,507.567 383.738,506.901 383.469,506.244 C 383.193,505.582 382.933,504.928 382.687,504.28 C 382.441,503.633 382.2,503.006 381.966,502.399 C 381.731,501.793 381.501,501.21 381.276,500.65 C 381.05,500.091 380.821,499.568 380.586,499.081 C 380.364,498.63 380.126,498.21 379.874,497.82 C 379.622,497.43 379.344,497.093 379.039,496.809 C 378.734,496.525 378.399,496.301 378.033,496.137 C 377.666,495.973 377.261,495.891 376.816,495.891 C 376.54,495.891 376.291,495.927 376.068,496.001 Z" marker-start="none" marker-end="none"/>
       <path d="M 390.892,504.605 C 390.707,504.766 390.566,505.029 390.47,505.392 C 390.373,505.755 390.311,506.228 390.285,506.811 C 390.259,507.394 390.246,508.105 390.246,508.943 C 390.246,509.247 390.255,509.682 390.272,510.248 C 390.29,510.813 390.314,511.471 390.347,512.221 C 390.379,512.971 390.416,513.791 390.457,514.682 C 390.498,515.572 390.541,516.494 390.588,517.446 C 390.635,518.398 390.685,519.359 390.738,520.329 C 390.791,521.299 390.844,522.236 390.896,523.141 C 390.949,524.047 390.999,524.901 391.045,525.703 C 391.092,526.506 391.136,527.215 391.177,527.83 C 391.183,527.971 391.224,528.093 391.3,528.195 C 391.377,528.298 391.475,528.38 391.595,528.441 C 391.715,528.503 391.85,528.548 391.999,528.577 C 392.149,528.607 392.3,528.621 392.452,528.621 C 392.803,528.621 393.172,528.528 393.559,528.34 C 393.442,527.344 393.326,526.323 393.212,525.277 C 393.097,524.231 392.989,523.173 392.887,522.104 C 392.784,521.035 392.689,519.961 392.601,518.883 C 392.513,517.805 392.437,516.743 392.373,515.697 C 392.308,514.651 392.258,513.624 392.223,512.616 C 392.188,511.609 392.17,510.642 392.17,509.716 C 392.17,509.136 392.178,508.638 392.192,508.222 C 392.207,507.806 392.231,507.454 392.263,507.167 C 392.295,506.88 392.339,506.648 392.395,506.473 C 392.45,506.297 392.519,506.162 392.601,506.069 C 392.683,505.975 392.78,505.912 392.891,505.88 C 393.003,505.847 393.134,505.831 393.287,505.831 C 393.568,505.831 393.871,505.874 394.196,505.959 C 394.522,506.044 394.851,506.162 395.185,506.315 L 395.352,505.858 C 395.141,505.688 394.876,505.515 394.557,505.339 C 394.237,505.164 393.902,505.002 393.55,504.856 C 393.199,504.709 392.855,504.591 392.518,504.5 C 392.181,504.409 391.889,504.363 391.643,504.364 C 391.327,504.363 391.076,504.444 390.892,504.605 Z" marker-start="none" marker-end="none"/>
       <path d="M 398.93,504.706 C 398.344,504.994 397.84,505.386 397.418,505.884 C 396.996,506.382 396.667,506.967 396.429,507.637 C 396.192,508.308 396.073,509.027 396.073,509.795 C 396.073,510.422 396.142,511.049 396.28,511.676 C 396.418,512.303 396.617,512.901 396.878,513.469 C 397.139,514.038 397.456,514.566 397.831,515.055 C 398.206,515.545 398.633,515.97 399.11,516.33 C 399.588,516.69 400.112,516.973 400.683,517.178 C 401.255,517.383 401.868,517.485 402.524,517.486 C 402.958,517.485 403.371,517.427 403.764,517.31 C 404.156,517.193 404.501,517.024 404.796,516.804 C 405.092,516.585 405.328,516.314 405.504,515.991 C 405.68,515.669 405.768,515.303 405.768,514.893 C 405.768,514.295 405.573,513.774 405.183,513.328 C 404.794,512.883 404.256,512.505 403.57,512.195 C 402.885,511.884 402.078,511.634 401.149,511.443 C 400.22,511.253 399.217,511.111 398.139,511.017 L 398.139,510.867 C 398.139,510.117 398.234,509.432 398.424,508.811 C 398.615,508.19 398.877,507.658 399.211,507.216 C 399.545,506.773 399.937,506.429 400.389,506.183 C 400.84,505.937 401.326,505.814 401.848,505.814 C 402.375,505.814 402.916,505.944 403.469,506.205 C 404.023,506.466 404.584,506.889 405.152,507.475 C 405.188,507.457 405.233,507.433 405.289,507.4 C 405.344,507.368 405.395,507.333 405.442,507.295 C 405.489,507.256 405.531,507.215 405.566,507.172 C 405.601,507.128 405.618,507.085 405.618,507.044 C 405.618,507.021 405.609,506.997 405.592,506.974 C 405.264,506.517 404.911,506.12 404.533,505.783 C 404.155,505.446 403.762,505.165 403.355,504.939 C 402.948,504.714 402.533,504.547 402.111,504.438 C 401.69,504.33 401.274,504.276 400.863,504.276 C 400.16,504.276 399.516,504.419 398.93,504.706 Z M 400.428,512.094 C 401.088,512.237 401.644,512.422 402.098,512.647 C 402.552,512.873 402.899,513.142 403.14,513.456 C 403.38,513.769 403.5,514.128 403.5,514.532 C 403.5,514.802 403.455,515.054 403.364,515.288 C 403.273,515.523 403.147,515.727 402.986,515.899 C 402.825,516.072 402.633,516.208 402.41,516.308 C 402.188,516.407 401.948,516.457 401.69,516.457 C 401.309,516.457 400.963,516.39 400.652,516.255 C 400.342,516.12 400.063,515.937 399.817,515.706 C 399.571,515.475 399.355,515.205 399.167,514.897 C 398.98,514.59 398.82,514.263 398.688,513.917 C 398.556,513.571 398.449,513.217 398.367,512.854 C 398.285,512.49 398.226,512.136 398.191,511.79 C 399.023,511.849 399.769,511.95 400.428,512.094 Z" marker-start="none" marker-end="none"/>
      </g>
     </g>
     <g id="Group_3">
      <path d="M 333.506,520.059 L 333.375,520.037 C 333.063,520.005 332.74,520.043 332.438,520.187 C 332.02,520.385 331.732,520.746 331.59,521.19 L 331.58,521.223 C 331.539,521.374 331.507,521.524 331.482,521.673 L 331.449,521.905 C 331.356,522.139 331.322,522.397 331.385,522.674 L 331.404,522.732 L 331.405,522.973 C 331.407,523.079 331.432,523.183 331.477,523.277 L 331.525,523.357 L 331.591,523.5 C 331.623,523.552 331.662,523.601 331.708,523.645 C 331.793,523.727 331.881,523.802 331.972,523.871 L 332.205,524.029 L 332.309,524.182 C 332.446,524.359 332.619,524.517 332.824,524.653 L 332.991,524.752 L 333.073,524.925 C 333.116,525.007 333.161,525.085 333.21,525.161 C 333.391,525.444 333.74,525.572 334.062,525.473 C 334.174,525.438 334.284,525.395 334.391,525.343 L 334.69,525.176 L 334.721,525.186 C 334.856,525.218 334.995,525.211 335.123,525.169 L 335.168,525.15 L 335.263,525.122 C 335.361,525.086 335.452,525.03 335.529,524.955 L 335.645,524.832 L 335.794,524.796 C 336.204,524.666 336.455,524.357 336.578,524.04 C 336.734,523.636 336.718,523.157 336.623,522.696 L 336.623,522.666 C 336.622,522.601 336.619,522.536 336.613,522.471 C 336.603,522.363 336.569,522.259 336.514,522.166 L 336.468,522.095 L 336.464,521.909 C 336.433,521.389 336.243,520.89 335.838,520.48 C 335.419,520.055 334.877,519.918 334.338,519.962 L 334.111,519.995 L 334.147,520.005 C 333.957,519.933 333.744,519.941 333.56,520.027 L 333.506,520.059 Z" stroke="none" fill="#000000" stroke-linecap="round" stroke-linejoin="miter" stroke-width="0.5" marker-start="none" marker-end="none" stroke-miterlimit="79.8403193612775"/>
     </g>
    </g>
    <path d="M 163.657,496.433 C 221.241,501.759 290.078,493.497 325.146,492.293 C 367.94,490.959 400.64,492.759 413.54,496.359" fill="none" stroke="#00b894" stroke-width="2" stroke-linejoin="round" stroke-linecap="round" stroke-miterlimit="79.8403193612775"/>
    <path d="M 332.614,519.061 L 332.688,521.807 L 330.178,520.886 L 331.802,523.064 L 329.248,523.842 L 331.802,524.618 L 330.178,526.796 L 332.688,525.874 L 332.614,528.621 L 334.12,526.354 L 335.624,528.621 L 335.55,525.874 L 338.06,526.796 L 336.436,524.618 L 338.992,523.84 L 336.436,523.064 L 338.06,520.886 L 335.55,521.807 L 335.624,519.061 L 334.118,521.328 L 332.614,519.061 Z" fill="#00b894" stroke-linejoin="miter" stroke-linecap="round" stroke-width="0.5" stroke="none" marker-start="none" marker-end="none" stroke-miterlimit="79.8403193612775"/>
   </g>
  </g>
 </g>
</svg>
